<?xml version="1.0" encoding="UTF-8" standalone="no"?>
<!-- Created with Inkscape (http://www.inkscape.org/) -->

<svg
   version="1.1"
   id="svg1"
   width="484"
   height="516"
   viewBox="0 0 484 516"
   sodipodi:docname="logo_viens.svg"
   inkscape:version="1.4.2 (f4327f4, 2025-05-13)"
   xmlns:inkscape="http://www.inkscape.org/namespaces/inkscape"
   xmlns:sodipodi="http://sodipodi.sourceforge.net/DTD/sodipodi-0.dtd"
   xmlns="http://www.w3.org/2000/svg"
   xmlns:svg="http://www.w3.org/2000/svg">
  <defs
     id="defs1" />
  <sodipodi:namedview
     id="namedview1"
     pagecolor="#ffffff"
     bordercolor="#000000"
     borderopacity="0.25"
     inkscape:showpageshadow="2"
     inkscape:pageopacity="0.0"
     inkscape:pagecheckerboard="0"
     inkscape:deskcolor="#d1d1d1"
     showgrid="false"
     inkscape:zoom="2.1185796"
     inkscape:cx="201.55013"
     inkscape:cy="378.79152"
     inkscape:window-width="1920"
     inkscape:window-height="991"
     inkscape:window-x="-9"
     inkscape:window-y="-9"
     inkscape:window-maximized="1"
     inkscape:current-layer="layer3" />
  <g
     inkscape:groupmode="layer"
     id="layer3"
     inkscape:label="veins"
     style="display:inline">
    <ellipse
       style="display:inline;fill:#4bff6d;stroke:#c0a8c5;stroke-width:1.00157"
       id="path9"
       cx="154.46669"
       cy="404.45731"
       rx="4.0121222"
       ry="4.1891274" />
    <ellipse
       style="display:inline;fill:#4bff6d;stroke:#c0a8c5;stroke-width:1.00157"
       id="path6"
       cx="331.55338"
       cy="380.28299"
       rx="5.5071154"
       ry="5.632277" />
    <ellipse
       style="display:inline;fill:#4bff6d;stroke:#c0a8c5;stroke-width:1.00157"
       id="path4"
       cx="300.6879"
       cy="340.39612"
       rx="4.4103842"
       ry="4.2923808" />
    <ellipse
       style="display:inline;fill:#4bff6d;stroke:#c0a8c5;stroke-width:1.00157"
       id="path8"
       cx="267.57315"
       cy="425.07843"
       rx="5.3101616"
       ry="5.2806606" />
    <path
       style="fill:#4bff6d;stroke:#c0a8c5;stroke-width:1.00157"
       d="m 74.578269,250.16761 c 21.083307,19.50993 42.166611,39.01985 63.249921,58.52978 8.24765,2.40199 16.52966,4.60218 25.18267,4.62398 23.16025,0.36912 46.91843,-0.19093 68.91279,-8.27392 10.63744,-2.94716 21.00118,-7.18841 30.58217,-12.6697 -10.52793,6.04265 -21.06414,12.21415 -32.81907,15.5691 -14.9521,5.98532 -31.1254,8.20048 -47.08275,9.4909 -10.02435,0.0808 -20.05813,0.80713 -30.0736,0.13922 14.21253,9.46627 30.39693,15.3867 45.26136,23.68734 10.62593,4.37056 21.11756,9.04581 32.07864,12.50382 12.00284,5.31207 25.42162,3.29937 38.14254,3.02618 7.91063,-1.24249 15.63223,-4.1857 22.57092,-8.1196 2.00901,-1.27167 9.61874,-7.82925 4.71096,-2.5729 -3.6671,4.60424 -9.49807,6.99728 -14.58773,9.71407 -8.50529,3.35909 -17.56205,4.97037 -26.54538,6.48554 10.27046,3.58718 21.10341,5.14858 31.40698,8.70187 13.29645,3.88627 27.02106,5.84882 40.59323,8.49625 -16.70961,-1.24834 -33.43294,-2.69143 -49.78602,-6.51034 -18.3807,-3.25436 -36.57601,-7.51475 -54.23586,-13.60171 -7.00704,-2.81892 0.87995,1.99825 3.16555,3.94361 11.67681,8.35416 20.42181,20.00771 29.32953,31.08457 4.58926,8.15463 8.56547,16.64227 11.70899,25.46014 -5.7386,-11.93569 -11.81178,-23.85695 -20.35579,-34.05979 -7.08613,-9.31507 -16.64186,-16.13251 -25.44311,-23.66433 -8.03752,-6.75075 -18.16388,-10.00637 -27.42892,-14.69003 -12.81875,-5.61448 -25.70377,-11.09793 -37.58802,-18.56001 -10.5349,-5.58433 -20.24731,-12.50658 -30.20846,-19.02422 1.91957,6.04795 6.43137,10.91803 8.49626,16.99251 6.8669,13.40182 12.04092,27.61275 15.7894,42.18099 2.30436,10.13652 3.52082,20.47047 4.59375,30.79901 -3.02254,-14.21879 -5.57979,-28.67851 -10.4183,-42.39803 -6.97978,-17.23906 -15.11498,-34.11233 -26.33577,-49.0329 -4.68979,-7.11704 -10.40384,-13.41822 -17.42438,-18.29036 C 89.263155,281.33039 78.971416,271.97984 68.442082,262.912 H 67.7918 67.498053"
       id="path1" />
    <ellipse
       style="fill:#4bff6d;stroke:#c0a8c5;stroke-width:1.00157"
       id="path3"
       cx="265.83258"
       cy="289.84631"
       rx="4.3366318"
       ry="4.2776303" />
  </g>
  <path
     style="display:inline;fill:#4bff6d;stroke:#c0a8c5;stroke-width:1.00157"
     d=""
     id="path2" />
</svg>
